<svg id="SvgjsSvg1297" xmlns="http://www.w3.org/2000/svg" version="1.1" xmlns:xlink="http://www.w3.org/1999/xlink" xmlns:svgjs="http://svgjs.com/svgjs" width="104" height="86" viewBox="0 0 104 86"><title>Icon</title><desc>Created with Avocode.</desc><defs id="SvgjsDefs1298"><clipPath id="SvgjsClipPath1302"><path id="SvgjsPath1301" d="M946 457L946 371L1050 371L1050 457ZM948 376L948 452C948 453.657 949.343 455 951 455L1045 455C1046.66 455 1048 453.657 1048 452L1048 376C1048 374.343 1046.66 373 1045 373L951 373C949.343 373 948 374.343 948 376Z " fill="#ffffff"></path></clipPath><clipPath id="SvgjsClipPath1311"><path id="SvgjsPath1310" d="M978 450L978 410L1018 410L1018 450ZM981 430C981 439.389 988.611 447 998 447C1007.39 447 1015 439.389 1015 430C1015 420.611 1007.39 413 998 413C988.611 413 981 420.611 981 430Z " fill="#ffffff"></path></clipPath></defs><path id="SvgjsPath1299" d="M951 373L1045 373C1046.66 373 1048 374.343 1048 376L1048 452C1048 453.657 1046.66 455 1045 455L951 455C949.343 455 948 453.657 948 452L948 376C948 374.343 949.343 373 951 373Z " fill="#ffffff" fill-opacity="1" transform="matrix(1,0,0,1,-946,-371)"></path><path id="SvgjsPath1300" d="M951 373L1045 373C1046.66 373 1048 374.343 1048 376L1048 452C1048 453.657 1046.66 455 1045 455L951 455C949.343 455 948 453.657 948 452L948 376C948 374.343 949.343 373 951 373Z " fill-opacity="0" fill="#ffffff" stroke-dasharray="0" stroke-linejoin="round" stroke-linecap="round" stroke-opacity="1" stroke="#bcdaff" stroke-miterlimit="50" stroke-width="4" clip-path="url(&quot;#SvgjsClipPath1302&quot;)" transform="matrix(1,0,0,1,-946,-371)"></path><path id="SvgjsPath1303" d="M948 385L948 383L1048 383L1048 385Z " fill="#bcdaff" fill-opacity="1" transform="matrix(1,0,0,1,-946,-371)"></path><path id="SvgjsPath1304" d="M966 376C967.105 376 968 376.895 968 378C968 379.105 967.105 380 966 380C964.895 380 964 379.105 964 378C964 376.895 964.895 376 966 376Z " fill="#bcdaff" fill-opacity="1" transform="matrix(1,0,0,1,-946,-371)"></path><path id="SvgjsPath1305" d="M960 376C961.105 376 962 376.895 962 378C962 379.105 961.105 380 960 380C958.895 380 958 379.105 958 378C958 376.895 958.895 376 960 376Z " fill="#bcdaff" fill-opacity="1" transform="matrix(1,0,0,1,-946,-371)"></path><path id="SvgjsPath1306" d="M954 376C955.105 376 956 376.895 956 378C956 379.105 955.105 380 954 380C952.895 380 952 379.105 952 378C952 376.895 952.895 376 954 376Z " fill="#bcdaff" fill-opacity="1" transform="matrix(1,0,0,1,-946,-371)"></path><path id="SvgjsPath1307" d="M1020.98 412.036C1019.9 411.389 1019.75 410.58 1019.53 409.565C1017.91 402.178 1010.8299999999999 398.354 1003.72 401.075C1002.49 401.545 1001.8100000000001 401.483 1000.83 400.533C996.32 396.118 990.9200000000001 394.821 984.942 397.077C979.076 399.29 976.034 403.729 975.522 409.824C975.457 410.595 975.541 411.30400000000003 974.6310000000001 411.75C971.6880000000001 413.189 968.816 416.444 969.0000000000001 419.861C969.0950000000001 421.61899999999997 969.1950000000002 428.779 977.6100000000001 431.006C990.9360000000001 431.006 1004.2600000000001 431.006 1017.5900000000001 431.006C1017.8900000000001 430.851 1018.1800000000002 430.65 1018.5000000000001 430.549C1022.7500000000001 429.202 1025.2900000000002 426.301 1025.89 422.06199999999995C1026.48 417.79699999999997 1024.7700000000002 414.316 1020.9800000000001 412.03599999999994ZM1023.69 422.551C1022.6600000000001 426.52299999999997 1019.4200000000001 428.925 1014.98 428.943C1009.19 428.966 1003.41 428.94899999999996 997.623 428.94899999999996C991.839 428.94899999999996 986.0540000000001 428.965 980.2700000000001 428.94399999999996C975.7990000000001 428.92799999999994 972.5630000000001 426.561 971.5190000000001 422.604C970.5500000000001 418.929 972.3630000000002 415.138 976.2550000000001 413.303C977.4780000000001 412.726 977.6250000000001 412.075 977.6380000000001 410.962C977.7060000000001 405.039 980.9780000000002 400.447 986.2490000000001 398.747C991.6160000000001 397.017 996.8780000000002 398.699 1000.6000000000001 403.5C1001.3600000000001 404.47 1001.6800000000002 404.548 1002.7700000000001 403.9C1009.58 399.852 1016.7800000000001 403.51599999999996 1017.5500000000001 411.393C1017.6500000000001 412.397 1018.0000000000001 412.80999999999995 1018.8900000000001 413.26C1022.8000000000001 415.241 1024.63 418.892 1023.69 422.551Z " fill="#bcdaff" fill-opacity="1" transform="matrix(1,0,0,1,-946,-371)"></path><path id="SvgjsPath1308" d="M998 413C1007.39 413 1015 420.611 1015 430C1015 439.389 1007.39 447 998 447C988.611 447 981 439.389 981 430C981 420.611 988.611 413 998 413Z " fill="#0769e0" fill-opacity="1" transform="matrix(1,0,0,1,-946,-371)"></path><path id="SvgjsPath1309" d="M998 413C1007.39 413 1015 420.611 1015 430C1015 439.389 1007.39 447 998 447C988.611 447 981 439.389 981 430C981 420.611 988.611 413 998 413Z " fill-opacity="0" fill="#ffffff" stroke-dasharray="0" stroke-linejoin="round" stroke-linecap="round" stroke-opacity="1" stroke="#ffffff" stroke-miterlimit="50" stroke-width="6" clip-path="url(&quot;#SvgjsClipPath1311&quot;)" transform="matrix(1,0,0,1,-946,-371)"></path><path id="SvgjsPath1312" d="M998.74 435.875C998.825 435.875 998.876 435.858 998.893 435.739L999.182 434.14099999999996C999.1990000000001 434.073 999.165 434.02199999999993 999.063 434.02199999999993L994.0649999999999 434.02199999999993L994.0649999999999 424.8259999999999C994.0649999999999 424.7579999999999 994.031 424.7069999999999 993.963 424.7069999999999L992.144 424.7069999999999C992.042 424.7069999999999 992.008 424.77499999999986 992.008 424.8599999999999L992.008 435.7049999999999C992.008 435.82399999999996 992.042 435.87499999999994 992.178 435.87499999999994ZM1000.41 427.495C1000.3199999999999 427.495 1000.3 427.512 1000.3 427.597C1000.37 428.15799999999996 1000.39 429.144 1000.39 429.875L1000.39 435.739C1000.39 435.82399999999996 1000.42 435.875 1000.54 435.875L1002.31 435.875C1002.41 435.875 1002.4599999999999 435.841 1002.4599999999999 435.739L1002.4599999999999 430.26599999999996C1002.8499999999999 429.756 1003.8599999999999 429.33099999999996 1005.06 429.36499999999995C1005.18 429.36499999999995 1005.2199999999999 429.33099999999996 1005.2199999999999 429.2459999999999L1005.2199999999999 427.4439999999999C1005.2199999999999 427.3419999999999 1005.18 427.3249999999999 1005.0799999999999 427.3249999999999C1003.91 427.3249999999999 1002.9399999999999 427.9369999999999 1002.3599999999999 428.6509999999999C1002.3399999999999 428.2769999999999 1002.2799999999999 427.8519999999999 1002.1899999999999 427.6309999999999C1002.16 427.52899999999994 1002.1099999999999 427.4949999999999 1001.9999999999999 427.4949999999999Z " fill="#ffffff" fill-opacity="1" transform="matrix(1,0,0,1,-946,-371)"></path></svg>