<svg id="SvgjsSvg1168" xmlns="http://www.w3.org/2000/svg" version="1.1" xmlns:xlink="http://www.w3.org/1999/xlink" xmlns:svgjs="http://svgjs.com/svgjs" width="248" height="103" viewBox="0 0 248 103"><title>Icon</title><desc>Created with Avocode.</desc><defs id="SvgjsDefs1169"><clipPath id="SvgjsClipPath1173"><path id="SvgjsPath1172" d="M397 264L397 178L501 178L501 264ZM399 183L399 259C399 260.657 400.343 262 402 262L496 262C497.657 262 499 260.657 499 259L499 183C499 181.343 497.657 180 496 180L402 180C400.343 180 399 181.343 399 183Z " fill="#ffffff"></path></clipPath><clipPath id="SvgjsClipPath1185"><path id="SvgjsPath1184" d="M429 281L429 241L469 241L469 281ZM432 261C432 270.389 439.611 278 449 278C458.389 278 466 270.389 466 261C466 251.611 458.389 244 449 244C439.611 244 432 251.611 432 261Z " fill="#ffffff"></path></clipPath><clipPath id="SvgjsClipPath1192"><path id="SvgjsPath1191" d="M253 264L253 178L357 178L357 264ZM255 183L255 259C255 260.657 256.343 262 258 262L352 262C353.657 262 355 260.657 355 259L355 183C355 181.343 353.657 180 352 180L258 180C256.343 180 255 181.343 255 183Z " fill="#ffffff"></path></clipPath><clipPath id="SvgjsClipPath1209"><path id="SvgjsPath1208" d="M285 281L285 241L325 241L325 281ZM288 261C288 270.389 295.611 278 305 278C314.389 278 322 270.389 322 261C322 251.611 314.389 244 305 244C295.611 244 288 251.611 288 261Z " fill="#ffffff"></path></clipPath></defs><path id="SvgjsPath1170" d="M402 180L496 180C497.657 180 499 181.343 499 183L499 259C499 260.657 497.657 262 496 262L402 262C400.343 262 399 260.657 399 259L399 183C399 181.343 400.343 180 402 180Z " fill="#ffffff" fill-opacity="1" transform="matrix(1,0,0,1,-253,-178)"></path><path id="SvgjsPath1171" d="M402 180L496 180C497.657 180 499 181.343 499 183L499 259C499 260.657 497.657 262 496 262L402 262C400.343 262 399 260.657 399 259L399 183C399 181.343 400.343 180 402 180Z " fill-opacity="0" fill="#ffffff" stroke-dasharray="0" stroke-linejoin="round" stroke-linecap="round" stroke-opacity="1" stroke="#bcdaff" stroke-miterlimit="50" stroke-width="4" clip-path="url(&quot;#SvgjsClipPath1173&quot;)" transform="matrix(1,0,0,1,-253,-178)"></path><path id="SvgjsPath1174" d="M399 192L399 190L499 190L499 192Z " fill="#bcdaff" fill-opacity="1" transform="matrix(1,0,0,1,-253,-178)"></path><path id="SvgjsPath1175" d="M452 235L476 235C477.105 235 478 235.895 478 237L478 262L450 262L450 237C450 235.895 450.895 235 452 235Z " fill="#bcdaff" fill-opacity="1" transform="matrix(1,0,0,1,-253,-178)"></path><path id="SvgjsPath1176" d="M421 235L445 235C446.105 235 447 235.895 447 237L447 262L419 262L419 237C419 235.895 419.895 235 421 235Z " fill="#bcdaff" fill-opacity="1" transform="matrix(1,0,0,1,-253,-178)"></path><path id="SvgjsPath1177" d="M452 202L476 202C477.105 202 478 202.895 478 204L478 230C478 231.105 477.105 232 476 232L452 232C450.895 232 450 231.105 450 230L450 204C450 202.895 450.895 202 452 202Z " fill="#bcdaff" fill-opacity="1" transform="matrix(1,0,0,1,-253,-178)"></path><path id="SvgjsPath1178" d="M421 202L445 202C446.105 202 447 202.895 447 204L447 230C447 231.105 446.105 232 445 232L421 232C419.895 232 419 231.105 419 230L419 204C419 202.895 419.895 202 421 202Z " fill="#bcdaff" fill-opacity="1" transform="matrix(1,0,0,1,-253,-178)"></path><path id="SvgjsPath1179" d="M417 183C418.105 183 419 183.895 419 185C419 186.105 418.105 187 417 187C415.895 187 415 186.105 415 185C415 183.895 415.895 183 417 183Z " fill="#bcdaff" fill-opacity="1" transform="matrix(1,0,0,1,-253,-178)"></path><path id="SvgjsPath1180" d="M411 183C412.105 183 413 183.895 413 185C413 186.105 412.105 187 411 187C409.895 187 409 186.105 409 185C409 183.895 409.895 183 411 183Z " fill="#bcdaff" fill-opacity="1" transform="matrix(1,0,0,1,-253,-178)"></path><path id="SvgjsPath1181" d="M405 183C406.105 183 407 183.895 407 185C407 186.105 406.105 187 405 187C403.895 187 403 186.105 403 185C403 183.895 403.895 183 405 183Z " fill="#bcdaff" fill-opacity="1" transform="matrix(1,0,0,1,-253,-178)"></path><path id="SvgjsPath1182" d="M449 244C458.389 244 466 251.611 466 261C466 270.389 458.389 278 449 278C439.611 278 432 270.389 432 261C432 251.611 439.611 244 449 244Z " fill="#0769e0" fill-opacity="1" transform="matrix(1,0,0,1,-253,-178)"></path><path id="SvgjsPath1183" d="M449 244C458.389 244 466 251.611 466 261C466 270.389 458.389 278 449 278C439.611 278 432 270.389 432 261C432 251.611 439.611 244 449 244Z " fill-opacity="0" fill="#ffffff" stroke-dasharray="0" stroke-linejoin="round" stroke-linecap="round" stroke-opacity="1" stroke="#ffffff" stroke-miterlimit="50" stroke-width="6" clip-path="url(&quot;#SvgjsClipPath1185&quot;)" transform="matrix(1,0,0,1,-253,-178)"></path><path id="SvgjsPath1186" d="M441.881 266.756C441.881 266.84099999999995 441.93199999999996 266.875 442.017 266.875L443.802 266.875C443.904 266.875 443.93800000000005 266.824 443.93800000000005 266.739L443.93800000000005 263.25399999999996C444.32900000000006 263.25399999999996 444.46500000000003 263.25399999999996 445.00900000000007 263.25399999999996C447.57500000000005 263.25399999999996 449.66600000000005 262.08199999999994 449.66600000000005 259.37899999999996C449.66600000000005 257.50899999999996 448.44200000000006 255.67299999999997 445.14500000000004 255.67299999999997C443.90400000000005 255.67299999999997 442.646 255.70699999999997 442.00000000000006 255.72399999999996C441.9150000000001 255.72399999999996 441.88100000000003 255.77499999999995 441.88100000000003 255.85999999999996ZM443.938 257.492C444.125 257.475 444.601 257.458 445.19599999999997 257.458C446.75899999999996 257.458 447.643 258.189 447.643 259.43C447.643 260.97700000000003 446.436 261.45300000000003 445.00899999999996 261.45300000000003C444.448 261.45300000000003 444.227 261.45300000000003 443.93799999999993 261.43600000000004ZM451.894 260.212L451.894 266.739C451.894 266.82399999999996 451.928 266.875 452.03000000000003 266.875L453.797 266.875C453.93300000000005 266.875 453.95000000000005 266.824 453.95000000000005 266.739L453.95000000000005 260.212L455.446 260.212C455.548 260.195 455.58200000000005 260.178 455.58200000000005 260.09299999999996L455.58200000000005 258.597C455.58200000000005 258.529 455.56500000000005 258.495 455.446 258.495L453.95000000000005 258.495L453.95000000000005 257.934C453.95000000000005 256.761 454.37500000000006 256.387 455.07200000000006 256.387C455.2250000000001 256.387 455.4290000000001 256.404 455.59900000000005 256.438C455.684 256.472 455.7180000000001 256.421 455.7180000000001 256.353L455.7180000000001 254.89100000000002C455.7180000000001 254.806 455.7180000000001 254.75500000000002 455.6160000000001 254.72100000000003C455.4290000000001 254.63600000000002 455.1230000000001 254.61900000000003 454.7830000000001 254.61900000000003C453.4910000000001 254.61900000000003 452.70900000000006 255.19700000000003 452.2680000000001 256.115C452.0300000000001 256.625 451.89400000000006 257.254 451.89400000000006 258.104L451.89400000000006 258.495L450.8570000000001 258.495C450.7890000000001 258.495 450.7550000000001 258.512 450.7550000000001 258.597L450.7550000000001 260.09299999999996C450.7550000000001 260.17799999999994 450.7720000000001 260.212 450.8570000000001 260.212Z " fill="#ffffff" fill-opacity="1" transform="matrix(1,0,0,1,-253,-178)"></path><path id="SvgjsPath1187" d="M366.611 232.525L372.97499999999997 238.889C373.36499999999995 239.28 373.99899999999997 239.28 374.38899999999995 238.889C374.78 238.49900000000002 374.78 237.865 374.38899999999995 237.47500000000002L368.91399999999993 232.00000000000003L383.99999999999994 232.00000000000003C384.55199999999996 232.00000000000003 384.99999999999994 231.55200000000002 384.99999999999994 231.00000000000003C384.99999999999994 230.44800000000004 384.55199999999996 230.00000000000003 383.99999999999994 230.00000000000003L368.91399999999993 230.00000000000003L374.38899999999995 224.52500000000003C374.78 224.13500000000005 374.78 223.50200000000004 374.38899999999995 223.11100000000005C373.99899999999997 222.72000000000006 373.36499999999995 222.72000000000006 372.97499999999997 223.11100000000005L366.611 229.47500000000005C366.687 229.39800000000005 365 231.15000000000006 365 231.00000000000006C365 230.85000000000005 366.687 232.60200000000006 366.611 232.52500000000006Z " fill="#0769e0" fill-opacity="1" transform="matrix(1,0,0,1,-253,-178)"></path><path id="SvgjsPath1188" d="M387.389 216.525L381.02500000000003 222.889C380.63500000000005 223.28 380.00100000000003 223.28 379.61100000000005 222.889C379.22 222.49800000000002 379.22 221.865 379.61100000000005 221.47500000000002L385.08600000000007 216.00000000000003L370.00000000000006 216.00000000000003C369.44800000000004 216.00000000000003 369.00000000000006 215.55200000000002 369.00000000000006 215.00000000000003C369.00000000000006 214.44800000000004 369.44800000000004 214.00000000000003 370.00000000000006 214.00000000000003L385.08600000000007 214.00000000000003L379.61100000000005 208.52500000000003C379.22 208.13400000000004 379.22 207.50100000000003 379.61100000000005 207.11100000000005C380.00100000000003 206.72000000000006 380.63500000000005 206.72000000000006 381.02500000000003 207.11100000000005L387.389 213.47500000000005C387.312 213.39800000000005 389 215.15000000000006 389 215.00000000000006C389 214.85000000000005 387.312 216.60200000000006 387.389 216.52500000000006Z " fill="#0769e0" fill-opacity="1" transform="matrix(1,0,0,1,-253,-178)"></path><path id="SvgjsPath1189" d="M258 180L352 180C353.657 180 355 181.343 355 183L355 259C355 260.657 353.657 262 352 262L258 262C256.343 262 255 260.657 255 259L255 183C255 181.343 256.343 180 258 180Z " fill="#ffffff" fill-opacity="1" transform="matrix(1,0,0,1,-253,-178)"></path><path id="SvgjsPath1190" d="M258 180L352 180C353.657 180 355 181.343 355 183L355 259C355 260.657 353.657 262 352 262L258 262C256.343 262 255 260.657 255 259L255 183C255 181.343 256.343 180 258 180Z " fill-opacity="0" fill="#ffffff" stroke-dasharray="0" stroke-linejoin="round" stroke-linecap="round" stroke-opacity="1" stroke="#bcdaff" stroke-miterlimit="50" stroke-width="4" clip-path="url(&quot;#SvgjsClipPath1192&quot;)" transform="matrix(1,0,0,1,-253,-178)"></path><path id="SvgjsPath1193" d="M255 192L255 190L355 190L355 192Z " fill="#bcdaff" fill-opacity="1" transform="matrix(1,0,0,1,-253,-178)"></path><path id="SvgjsPath1194" d="M321 250L333 250C334.105 250 335 250.895 335 252L335 262L319 262L319 252C319 250.895 319.895 250 321 250Z " fill="#bcdaff" fill-opacity="1" transform="matrix(1,0,0,1,-253,-178)"></path><path id="SvgjsPath1195" d="M299 250L311 250C312.105 250 313 250.895 313 252L313 262L297 262L297 252C297 250.895 297.895 250 299 250Z " fill="#a7ceff" fill-opacity="1" transform="matrix(1,0,0,1,-253,-178)"></path><path id="SvgjsPath1196" d="M277 250L289 250C290.105 250 291 250.895 291 252L291 262L275 262L275 252C275 250.895 275.895 250 277 250Z " fill="#bcdaff" fill-opacity="1" transform="matrix(1,0,0,1,-253,-178)"></path><path id="SvgjsPath1197" d="M321 226L333 226C334.105 226 335 226.895 335 228L335 242C335 243.105 334.105 244 333 244L321 244C319.895 244 319 243.105 319 242L319 228C319 226.895 319.895 226 321 226Z " fill="#bcdaff" fill-opacity="1" transform="matrix(1,0,0,1,-253,-178)"></path><path id="SvgjsPath1198" d="M299 226L311 226C312.105 226 313 226.895 313 228L313 242C313 243.105 312.105 244 311 244L299 244C297.895 244 297 243.105 297 242L297 228C297 226.895 297.895 226 299 226Z " fill="#bcdaff" fill-opacity="1" transform="matrix(1,0,0,1,-253,-178)"></path><path id="SvgjsPath1199" d="M277 226L289 226C290.105 226 291 226.895 291 228L291 242C291 243.105 290.105 244 289 244L277 244C275.895 244 275 243.105 275 242L275 228C275 226.895 275.895 226 277 226Z " fill="#bcdaff" fill-opacity="1" transform="matrix(1,0,0,1,-253,-178)"></path><path id="SvgjsPath1200" d="M321 202L333 202C334.105 202 335 202.895 335 204L335 218C335 219.105 334.105 220 333 220L321 220C319.895 220 319 219.105 319 218L319 204C319 202.895 319.895 202 321 202Z " fill="#bcdaff" fill-opacity="1" transform="matrix(1,0,0,1,-253,-178)"></path><path id="SvgjsPath1201" d="M299 202L311 202C312.105 202 313 202.895 313 204L313 218C313 219.105 312.105 220 311 220L299 220C297.895 220 297 219.105 297 218L297 204C297 202.895 297.895 202 299 202Z " fill="#bcdaff" fill-opacity="1" transform="matrix(1,0,0,1,-253,-178)"></path><path id="SvgjsPath1202" d="M277 202L289 202C290.105 202 291 202.895 291 204L291 218C291 219.105 290.105 220 289 220L277 220C275.895 220 275 219.105 275 218L275 204C275 202.895 275.895 202 277 202Z " fill="#bcdaff" fill-opacity="1" transform="matrix(1,0,0,1,-253,-178)"></path><path id="SvgjsPath1203" d="M273 183C274.105 183 275 183.895 275 185C275 186.105 274.105 187 273 187C271.895 187 271 186.105 271 185C271 183.895 271.895 183 273 183Z " fill="#bcdaff" fill-opacity="1" transform="matrix(1,0,0,1,-253,-178)"></path><path id="SvgjsPath1204" d="M267 183C268.105 183 269 183.895 269 185C269 186.105 268.105 187 267 187C265.895 187 265 186.105 265 185C265 183.895 265.895 183 267 183Z " fill="#bcdaff" fill-opacity="1" transform="matrix(1,0,0,1,-253,-178)"></path><path id="SvgjsPath1205" d="M261 183C262.105 183 263 183.895 263 185C263 186.105 262.105 187 261 187C259.895 187 259 186.105 259 185C259 183.895 259.895 183 261 183Z " fill="#bcdaff" fill-opacity="1" transform="matrix(1,0,0,1,-253,-178)"></path><path id="SvgjsPath1206" d="M305 244C314.389 244 322 251.611 322 261C322 270.389 314.389 278 305 278C295.611 278 288 270.389 288 261C288 251.611 295.611 244 305 244Z " fill="#0769e0" fill-opacity="1" transform="matrix(1,0,0,1,-253,-178)"></path><path id="SvgjsPath1207" d="M305 244C314.389 244 322 251.611 322 261C322 270.389 314.389 278 305 278C295.611 278 288 270.389 288 261C288 251.611 295.611 244 305 244Z " fill-opacity="0" fill="#ffffff" stroke-dasharray="0" stroke-linejoin="round" stroke-linecap="round" stroke-opacity="1" stroke="#ffffff" stroke-miterlimit="50" stroke-width="6" clip-path="url(&quot;#SvgjsClipPath1209&quot;)" transform="matrix(1,0,0,1,-253,-178)"></path><path id="SvgjsPath1210" d="M297.002 266.739C297.002 266.80699999999996 297.036 266.858 297.12100000000004 266.875C297.76700000000005 266.892 298.92300000000006 266.909 300.40200000000004 266.909C303.20700000000005 266.909 305.059 265.617 305.059 263.47499999999997C305.059 261.912 304.057 261.164 303.42800000000005 260.84099999999995C303.85300000000007 260.53499999999997 304.49800000000005 259.83799999999997 304.49800000000005 258.631C304.49800000000005 257.54299999999995 303.95500000000004 255.67299999999997 300.40200000000004 255.67299999999997C299.26300000000003 255.67299999999997 297.71600000000007 255.70699999999997 297.10400000000004 255.72399999999996C297.01900000000006 255.74099999999996 297.00200000000007 255.79199999999997 297.00200000000007 255.87699999999995ZM299.025 261.928L300.572 261.928C301.031 261.928 301.422 261.962 301.728 262.048C302.612 262.26800000000003 302.952 262.829 302.952 263.526C302.952 264.665 301.932 265.209 300.334 265.192C299.824 265.192 299.399 265.175 299.025 265.158ZM299.025 257.441C299.382 257.441 299.82399999999996 257.424 300.368 257.424C301.762 257.424 302.51 257.917 302.51 258.91999999999996C302.51 259.58299999999997 302.221 259.97399999999993 301.864 260.263C301.609 260.212 300.929 260.161 300.31699999999995 260.161L299.025 260.161ZM311.774 263.152C312.607 263.152 313.287 263.135 313.525 263.084C313.60999999999996 263.067 313.644 263.033 313.661 262.965C313.712 262.77799999999996 313.729 262.387 313.729 261.912C313.729 260.29699999999997 312.76 258.325 310.245 258.325C307.678 258.325 306.25 260.416 306.25 262.77799999999996C306.25 264.86899999999997 307.355 267.04499999999996 310.449 267.04499999999996C311.604 267.04499999999996 312.35200000000003 266.85799999999995 312.998 266.55199999999996C313.066 266.518 313.09999999999997 266.467 313.09999999999997 266.36499999999995L313.09999999999997 264.95399999999995C313.09999999999997 264.86899999999997 313.049 264.852 312.998 264.88599999999997C312.352 265.15799999999996 311.656 265.294 310.89099999999996 265.294C309.157 265.294 308.37499999999994 264.342 308.32399999999996 263.152ZM307.78 255.486C307.712 255.486 307.66099999999994 255.503 307.66099999999994 255.605L307.66099999999994 256.812C307.66099999999994 256.897 307.67799999999994 256.93100000000004 307.7629999999999 256.93100000000004L312.52199999999993 256.93100000000004C312.5899999999999 256.93100000000004 312.6239999999999 256.89700000000005 312.6239999999999 256.82900000000006L312.6239999999999 255.60500000000008C312.6239999999999 255.52000000000007 312.6069999999999 255.48600000000008 312.52199999999993 255.48600000000008ZM308.324 261.691C308.46000000000004 260.85799999999995 308.987 259.957 310.16 259.957C311.452 259.957 311.79200000000003 261.045 311.79200000000003 261.538C311.79200000000003 261.555 311.79200000000003 261.623 311.79200000000003 261.67400000000004C311.723 261.69100000000003 311.50300000000004 261.69100000000003 310.857 261.69100000000003Z " fill="#ffffff" fill-opacity="1" transform="matrix(1,0,0,1,-253,-178)"></path></svg>