<svg id="SvgjsSvg1211" xmlns="http://www.w3.org/2000/svg" version="1.1" xmlns:xlink="http://www.w3.org/1999/xlink" xmlns:svgjs="http://svgjs.com/svgjs" width="150" height="86" viewBox="0 0 150 86"><title>Icon</title><desc>Created with Avocode.</desc><defs id="SvgjsDefs1212"><clipPath id="SvgjsClipPath1216"><path id="SvgjsPath1215" d="M661 266L661 180L765 180L765 266ZM663 185L663 261C663 262.657 664.343 264 666 264L760 264C761.657 264 763 262.657 763 261L763 185C763 183.343 761.657 182 760 182L666 182C664.343 182 663 183.343 663 185Z " fill="#ffffff"></path></clipPath><clipPath id="SvgjsClipPath1228"><path id="SvgjsPath1227" d="M749 266L749 210L791 210L791 266ZM751 215L751 261C751 262.657 752.343 264 754 264L786 264C787.657 264 789 262.657 789 261L789 215C789 213.343 787.657 212 786 212L754 212C752.343 212 751 213.343 751 215Z " fill="#ffffff"></path></clipPath><clipPath id="SvgjsClipPath1236"><path id="SvgjsPath1235" d="M785 266L785 228L811 228L811 266ZM787 233L787 261C787 262.657 788.343 264 790 264L806 264C807.657 264 809 262.657 809 261L809 233C809 231.343 807.657 230 806 230L790 230C788.343 230 787 231.343 787 233Z " fill="#ffffff"></path></clipPath></defs><path id="SvgjsPath1213" d="M666 182L760 182C761.657 182 763 183.343 763 185L763 261C763 262.657 761.657 264 760 264L666 264C664.343 264 663 262.657 663 261L663 185C663 183.343 664.343 182 666 182Z " fill="#ffffff" fill-opacity="1" transform="matrix(1,0,0,1,-661,-180)"></path><path id="SvgjsPath1214" d="M666 182L760 182C761.657 182 763 183.343 763 185L763 261C763 262.657 761.657 264 760 264L666 264C664.343 264 663 262.657 663 261L663 185C663 183.343 664.343 182 666 182Z " fill-opacity="0" fill="#ffffff" stroke-dasharray="0" stroke-linejoin="round" stroke-linecap="round" stroke-opacity="1" stroke="#0769e0" stroke-miterlimit="50" stroke-width="4" clip-path="url(&quot;#SvgjsClipPath1216&quot;)" transform="matrix(1,0,0,1,-661,-180)"></path><path id="SvgjsPath1217" d="M663 194L663 192L763 192L763 194Z " fill="#0769e0" fill-opacity="1" transform="matrix(1,0,0,1,-661,-180)"></path><path id="SvgjsPath1218" d="M716 237L740 237C741.105 237 742 237.895 742 239L742 264L714 264L714 239C714 237.895 714.895 237 716 237Z " fill="#bcdaff" fill-opacity="1" transform="matrix(1,0,0,1,-661,-180)"></path><path id="SvgjsPath1219" d="M685 237L709 237C710.105 237 711 237.895 711 239L711 264L683 264L683 239C683 237.895 683.895 237 685 237Z " fill="#bcdaff" fill-opacity="1" transform="matrix(1,0,0,1,-661,-180)"></path><path id="SvgjsPath1220" d="M716 204L740 204C741.105 204 742 204.895 742 206L742 232C742 233.105 741.105 234 740 234L716 234C714.895 234 714 233.105 714 232L714 206C714 204.895 714.895 204 716 204Z " fill="#bcdaff" fill-opacity="1" transform="matrix(1,0,0,1,-661,-180)"></path><path id="SvgjsPath1221" d="M685 204L709 204C710.105 204 711 204.895 711 206L711 232C711 233.105 710.105 234 709 234L685 234C683.895 234 683 233.105 683 232L683 206C683 204.895 683.895 204 685 204Z " fill="#bcdaff" fill-opacity="1" transform="matrix(1,0,0,1,-661,-180)"></path><path id="SvgjsPath1222" d="M681 185C682.105 185 683 185.895 683 187C683 188.105 682.105 189 681 189C679.895 189 679 188.105 679 187C679 185.895 679.895 185 681 185Z " fill="#0769e0" fill-opacity="1" transform="matrix(1,0,0,1,-661,-180)"></path><path id="SvgjsPath1223" d="M675 185C676.105 185 677 185.895 677 187C677 188.105 676.105 189 675 189C673.895 189 673 188.105 673 187C673 185.895 673.895 185 675 185Z " fill="#0769e0" fill-opacity="1" transform="matrix(1,0,0,1,-661,-180)"></path><path id="SvgjsPath1224" d="M669 185C670.105 185 671 185.895 671 187C671 188.105 670.105 189 669 189C667.895 189 667 188.105 667 187C667 185.895 667.895 185 669 185Z " fill="#0769e0" fill-opacity="1" transform="matrix(1,0,0,1,-661,-180)"></path><path id="SvgjsPath1225" d="M754 212L786 212C787.657 212 789 213.343 789 215L789 261C789 262.657 787.657 264 786 264L754 264C752.343 264 751 262.657 751 261L751 215C751 213.343 752.343 212 754 212Z " fill="#ffffff" fill-opacity="1" transform="matrix(1,0,0,1,-661,-180)"></path><path id="SvgjsPath1226" d="M754 212L786 212C787.657 212 789 213.343 789 215L789 261C789 262.657 787.657 264 786 264L754 264C752.343 264 751 262.657 751 261L751 215C751 213.343 752.343 212 754 212Z " fill-opacity="0" fill="#ffffff" stroke-dasharray="0" stroke-linejoin="round" stroke-linecap="round" stroke-opacity="1" stroke="#0769e0" stroke-miterlimit="50" stroke-width="4" clip-path="url(&quot;#SvgjsClipPath1228&quot;)" transform="matrix(1,0,0,1,-661,-180)"></path><path id="SvgjsPath1229" d="M770 258C771.105 258 772 258.895 772 260C772 261.105 771.105 262 770 262C768.895 262 768 261.105 768 260C768 258.895 768.895 258 770 258Z " fill="#0769e0" fill-opacity="1" transform="matrix(1,0,0,1,-661,-180)"></path><path id="SvgjsPath1230" d="M758 256L758 254L782 254L782 256Z " fill="#0769e0" fill-opacity="1" transform="matrix(1,0,0,1,-661,-180)"></path><path id="SvgjsPath1231" d="M760 217L780 217C781.105 217 782 217.895 782 219L782 241C782 242.105 781.105 243 780 243L760 243C758.895 243 758 242.105 758 241L758 219C758 217.895 758.895 217 760 217Z " fill="#bcdaff" fill-opacity="1" transform="matrix(1,0,0,1,-661,-180)"></path><path id="SvgjsPath1232" d="M760 245L780 245C781.105 245 782 245.895 782 247L782 254L758 254L758 247C758 245.895 758.895 245 760 245Z " fill="#bcdaff" fill-opacity="1" transform="matrix(1,0,0,1,-661,-180)"></path><path id="SvgjsPath1233" d="M790 230L806 230C807.657 230 809 231.343 809 233L809 261C809 262.657 807.657 264 806 264L790 264C788.343 264 787 262.657 787 261L787 233C787 231.343 788.343 230 790 230Z " fill="#ffffff" fill-opacity="1" transform="matrix(1,0,0,1,-661,-180)"></path><path id="SvgjsPath1234" d="M790 230L806 230C807.657 230 809 231.343 809 233L809 261C809 262.657 807.657 264 806 264L790 264C788.343 264 787 262.657 787 261L787 233C787 231.343 788.343 230 790 230Z " fill-opacity="0" fill="#ffffff" stroke-dasharray="0" stroke-linejoin="round" stroke-linecap="round" stroke-opacity="1" stroke="#0769e0" stroke-miterlimit="50" stroke-width="4" clip-path="url(&quot;#SvgjsClipPath1236&quot;)" transform="matrix(1,0,0,1,-661,-180)"></path><path id="SvgjsPath1237" d="M798 258C799.105 258 800 258.895 800 260C800 261.105 799.105 262 798 262C796.895 262 796 261.105 796 260C796 258.895 796.895 258 798 258Z " fill="#0769e0" fill-opacity="1" transform="matrix(1,0,0,1,-661,-180)"></path><path id="SvgjsPath1238" d="M790 256L790 254L806 254L806 256Z " fill="#0769e0" fill-opacity="1" transform="matrix(1,0,0,1,-661,-180)"></path><path id="SvgjsPath1239" d="M792 234L804 234C805.105 234 806 234.895 806 236L806 244C806 245.105 805.105 246 804 246L792 246C790.895 246 790 245.105 790 244L790 236C790 234.895 790.895 234 792 234Z " fill="#bcdaff" fill-opacity="1" transform="matrix(1,0,0,1,-661,-180)"></path><path id="SvgjsPath1240" d="M792 248L804 248C805.105 248 806 248.895 806 250L806 254L790 254L790 250C790 248.895 790.895 248 792 248Z " fill="#bcdaff" fill-opacity="1" transform="matrix(1,0,0,1,-661,-180)"></path></svg>