<svg id="SvgjsSvg1253" xmlns="http://www.w3.org/2000/svg" version="1.1" xmlns:xlink="http://www.w3.org/1999/xlink" xmlns:svgjs="http://svgjs.com/svgjs" width="104" height="86" viewBox="0 0 104 86"><title>Icon</title><desc>Created with Avocode.</desc><defs id="SvgjsDefs1254"><clipPath id="SvgjsClipPath1258"><path id="SvgjsPath1257" d="M301 458L301 372L405 372L405 458ZM303 377L303 453C303 454.657 304.343 456 306 456L400 456C401.657 456 403 454.657 403 453L403 377C403 375.343 401.657 374 400 374L306 374C304.343 374 303 375.343 303 377Z " fill="#ffffff"></path></clipPath></defs><path id="SvgjsPath1255" d="M306 374L400 374C401.657 374 403 375.343 403 377L403 453C403 454.657 401.657 456 400 456L306 456C304.343 456 303 454.657 303 453L303 377C303 375.343 304.343 374 306 374Z " fill="#ffffff" fill-opacity="1" transform="matrix(1,0,0,1,-301,-372)"></path><path id="SvgjsPath1256" d="M306 374L400 374C401.657 374 403 375.343 403 377L403 453C403 454.657 401.657 456 400 456L306 456C304.343 456 303 454.657 303 453L303 377C303 375.343 304.343 374 306 374Z " fill-opacity="0" fill="#ffffff" stroke-dasharray="0" stroke-linejoin="round" stroke-linecap="round" stroke-opacity="1" stroke="#bcdaff" stroke-miterlimit="50" stroke-width="4" clip-path="url(&quot;#SvgjsClipPath1258&quot;)" transform="matrix(1,0,0,1,-301,-372)"></path><path id="SvgjsPath1259" d="M303 386L303 384L403 384L403 386Z " fill="#bcdaff" fill-opacity="1" transform="matrix(1,0,0,1,-301,-372)"></path><path id="SvgjsPath1260" d="M345.661 415.649L348.308 424.777L350.073 424.777C351.099 421.15799999999996 351.909 418.36699999999996 352.07099999999997 417.377L352.08899999999994 417.377C352.2869999999999 418.367 353.16999999999996 421.446 354.05199999999996 424.777L355.76199999999994 424.777L358.57099999999997 415.649L356.969 415.649C355.546 420.798 355.186 422.167 354.952 423.139L354.934 423.139C354.79 422.31100000000004 354.358 420.81600000000003 352.935 415.649L351.387 415.649C350.091 420.186 349.442 422.473 349.28 423.319L349.262 423.319C349.1 422.38300000000004 348.452 419.934 347.318 415.649ZM372.95 415.649L375.596 424.777L377.361 424.777C378.387 421.15799999999996 379.198 418.36699999999996 379.36 417.377L379.378 417.377C379.57599999999996 418.367 380.45799999999997 421.446 381.34 424.777L383.051 424.777L385.86 415.649L384.257 415.649C382.835 420.798 382.475 422.167 382.24 423.139L382.22200000000004 423.139C382.07800000000003 422.31100000000004 381.646 420.81600000000003 380.22400000000005 415.649L378.67500000000007 415.649C377.3790000000001 420.186 376.73100000000005 422.473 376.5690000000001 423.319L376.5510000000001 423.319C376.3890000000001 422.38300000000004 375.7410000000001 419.934 374.6060000000001 415.649ZM359.305 415.649L361.952 424.777L363.717 424.777C364.743 421.15799999999996 365.553 418.36699999999996 365.715 417.377L365.73299999999995 417.377C365.93199999999996 418.367 366.81399999999996 421.446 367.69599999999997 424.777L369.40599999999995 424.777L372.215 415.649L370.613 415.649C369.19 420.798 368.83 422.167 368.596 423.139L368.57800000000003 423.139C368.434 422.31100000000004 368.002 420.81600000000003 366.58000000000004 415.649L365.03100000000006 415.649C363.73500000000007 420.186 363.08700000000005 422.473 362.92500000000007 423.319L362.9070000000001 423.319C362.7450000000001 422.38300000000004 362.0960000000001 419.934 360.9620000000001 415.649ZM388.017 424.777L388.017 422.113L386.36 422.113L386.36 424.777Z " fill="#0769e0" fill-opacity="1" transform="matrix(1,0,0,1,-301,-372)"></path><path id="SvgjsPath1261" d="M328.5 410C334.299 410 339 414.701 339 420.5C339 426.299 334.299 431 328.5 431C322.701 431 318 426.299 318 420.5C318 414.701 322.701 410 328.5 410Z " fill="#0769e0" fill-opacity="1" transform="matrix(1,0,0,1,-301,-372)"></path><path id="SvgjsPath1262" d="M333.711 418.767L328.8 423.678C330.48900000000003 421.988 327.668 425.08299999999997 327.12100000000004 424.535L323.46400000000006 420.879C323.07400000000007 420.488 323.07400000000007 419.855 323.46400000000006 419.464C323.8550000000001 419.074 324.48800000000006 419.074 324.8790000000001 419.464L327.4680000000001 422.054L332.23300000000006 417.289C332.6410000000001 416.881 333.30300000000005 416.881 333.71100000000007 417.289C334.1190000000001 417.698 334.1190000000001 418.359 333.71100000000007 418.767Z " fill="#ffffff" fill-opacity="1" transform="matrix(1,0,0,1,-301,-372)"></path><path id="SvgjsPath1263" d="M321 377C322.105 377 323 377.895 323 379C323 380.105 322.105 381 321 381C319.895 381 319 380.105 319 379C319 377.895 319.895 377 321 377Z " fill="#bcdaff" fill-opacity="1" transform="matrix(1,0,0,1,-301,-372)"></path><path id="SvgjsPath1264" d="M315 377C316.105 377 317 377.895 317 379C317 380.105 316.105 381 315 381C313.895 381 313 380.105 313 379C313 377.895 313.895 377 315 377Z " fill="#bcdaff" fill-opacity="1" transform="matrix(1,0,0,1,-301,-372)"></path><path id="SvgjsPath1265" d="M309 377C310.105 377 311 377.895 311 379C311 380.105 310.105 381 309 381C307.895 381 307 380.105 307 379C307 377.895 307.895 377 309 377Z " fill="#bcdaff" fill-opacity="1" transform="matrix(1,0,0,1,-301,-372)"></path></svg>