<svg id="SvgjsSvg1266" xmlns="http://www.w3.org/2000/svg" version="1.1" xmlns:xlink="http://www.w3.org/1999/xlink" xmlns:svgjs="http://svgjs.com/svgjs" width="92" height="82" viewBox="0 0 92 82"><title>Icon</title><desc>Created with Avocode.</desc><defs id="SvgjsDefs1267"><clipPath id="SvgjsClipPath1271"><path id="SvgjsPath1270" d="M523 451L523 387L583 387L583 451ZM525 395L525 443C525 446.314 527.686 449 531 449L575 449C578.314 449 581 446.314 581 443L581 395C581 391.686 578.314 389 575 389L531 389C527.686 389 525 391.686 525 395Z " fill="#ffffff"></path></clipPath><clipPath id="SvgjsClipPath1275"><path id="SvgjsPath1274" d="M540 389L540 369L566 369L566 389ZM542 382L542 387L564 387L564 382C564 375.925 559.075 371 553 371C546.925 371 542 375.925 542 382Z " fill="#ffffff"></path></clipPath><clipPath id="SvgjsClipPath1279"><path id="SvgjsPath1278" d="M545 389L545 374L561 374L561 389ZM547 382L547 387L559 387L559 382C559 378.686 556.314 376 553 376C549.686 376 547 378.686 547 382Z " fill="#ffffff"></path></clipPath></defs><path id="SvgjsPath1268" d="M531 389L575 389C578.314 389 581 391.686 581 395L581 443C581 446.314 578.314 449 575 449L531 449C527.686 449 525 446.314 525 443L525 395C525 391.686 527.686 389 531 389Z " fill="#ffffff" fill-opacity="1" transform="matrix(1,0,0,1,-506,-369)"></path><path id="SvgjsPath1269" d="M531 389L575 389C578.314 389 581 391.686 581 395L581 443C581 446.314 578.314 449 575 449L531 449C527.686 449 525 446.314 525 443L525 395C525 391.686 527.686 389 531 389Z " fill-opacity="0" fill="#ffffff" stroke-dasharray="0" stroke-linejoin="round" stroke-linecap="round" stroke-opacity="1" stroke="#bcdaff" stroke-miterlimit="50" stroke-width="4" clip-path="url(&quot;#SvgjsClipPath1271&quot;)" transform="matrix(1,0,0,1,-506,-369)"></path><path id="SvgjsPath1272" d="M553 371C559.075 371 564 375.925 564 382L564 387L542 387L542 382C542 375.925 546.925 371 553 371Z " fill="#ffffff" fill-opacity="1" transform="matrix(1,0,0,1,-506,-369)"></path><path id="SvgjsPath1273" d="M553 371C559.075 371 564 375.925 564 382L564 387L542 387L542 382C542 375.925 546.925 371 553 371Z " fill-opacity="0" fill="#ffffff" stroke-dasharray="0" stroke-linejoin="round" stroke-linecap="round" stroke-opacity="1" stroke="#bcdaff" stroke-miterlimit="50" stroke-width="4" clip-path="url(&quot;#SvgjsClipPath1275&quot;)" transform="matrix(1,0,0,1,-506,-369)"></path><path id="SvgjsPath1276" d="M553 376C556.314 376 559 378.686 559 382L559 387L547 387L547 382C547 378.686 549.686 376 553 376Z " fill="#ffffff" fill-opacity="1" transform="matrix(1,0,0,1,-506,-369)"></path><path id="SvgjsPath1277" d="M553 376C556.314 376 559 378.686 559 382L559 387L547 387L547 382C547 378.686 549.686 376 553 376Z " fill-opacity="0" fill="#ffffff" stroke-dasharray="0" stroke-linejoin="round" stroke-linecap="round" stroke-opacity="1" stroke="#bcdaff" stroke-miterlimit="50" stroke-width="4" clip-path="url(&quot;#SvgjsClipPath1279&quot;)" transform="matrix(1,0,0,1,-506,-369)"></path><path id="SvgjsPath1280" d="M520 405L584 405C591.732 405 598 411.268 598 419C598 426.732 591.732 433 584 433L520 433C512.268 433 506 426.732 506 419C506 411.268 512.268 405 520 405Z " fill="#0769e0" fill-opacity="1" transform="matrix(1,0,0,1,-506,-369)"></path><path id="SvgjsPath1281" d="M529.206 414.072L529.494 417.624L526.782 415.416L525.846 416.976L529.23 418.512L525.87 420.072L526.782 421.657L529.518 419.4L529.182 423.001L530.9590000000001 423.001L530.5980000000001 419.4L533.383 421.657L534.2950000000001 420.072L530.9350000000001 418.512L534.3190000000001 416.976L533.383 415.416L530.623 417.624L530.9350000000001 414.072ZM553.254 414.072L553.542 417.624L550.8290000000001 415.416L549.893 416.976L553.278 418.512L549.917 420.072L550.8290000000001 421.657L553.566 419.4L553.23 423.001L555.006 423.001L554.646 419.4L557.43 421.657L558.342 420.072L554.982 418.512L558.366 416.976L557.43 415.416L554.67 417.624L554.982 414.072ZM541.23 414.072L541.518 417.624L538.806 415.416L537.87 416.976L541.254 418.512L537.894 420.072L538.806 421.657L541.542 419.4L541.206 423.001L542.982 423.001L542.622 419.4L545.406 421.657L546.318 420.072L542.958 418.512L546.342 416.976L545.406 415.416L542.646 417.624L542.958 414.072ZM565.277 414.072L565.565 417.624L562.8530000000001 415.416L561.917 416.976L565.301 418.512L561.941 420.072L562.8530000000001 421.657L565.589 419.4L565.253 423.001L567.0300000000001 423.001L566.6690000000001 419.4L569.4540000000001 421.657L570.3660000000001 420.072L567.0050000000001 418.512L570.3900000000001 416.976L569.4540000000001 415.416L566.6930000000001 417.624L567.0050000000001 414.072Z " fill="#ffffff" fill-opacity="1" transform="matrix(1,0,0,1,-506,-369)"></path><path id="SvgjsPath1282" d="M576.012 412.004L576.012 425.014L577.002 425.014L577.002 412.004Z " fill="#ffffff" fill-opacity="1" transform="matrix(1,0,0,1,-506,-369)"></path></svg>