<svg id="Icon" xmlns="http://www.w3.org/2000/svg" width="102" height="84" viewBox="0 0 102 84">
  <defs>
    <style>
      .cls-1 {
        fill: #fff;
        stroke: #bcdaff;
        stroke-linejoin: round;
        stroke-width: 2px;
      }

      .cls-2 {
        fill: #bcdaff;
      }

      .cls-3 {
        fill: #0769e0;
      }
    </style>
  </defs>
  <rect id="Rounded_Rectangle_2" data-name="Rounded Rectangle 2" class="cls-1" x="1" y="1" width="100" height="82" rx="3" ry="3"/>
  <rect class="cls-2" x="1" y="11" width="100" height="2"/>
  <circle class="cls-2" cx="19" cy="6" r="2"/>
  <circle class="cls-2" cx="13" cy="6" r="2"/>
  <circle class="cls-2" cx="7" cy="6" r="2"/>
  <path id="Rounded_Rectangle_3" data-name="Rounded Rectangle 3" class="cls-3" d="M23,27H33a0,0,0,0,1,0,0V39a0,0,0,0,1,0,0H21a0,0,0,0,1,0,0V29A2,2,0,0,1,23,27Z"/>
  <path id="Rounded_Rectangle_3-2" data-name="Rounded Rectangle 3" class="cls-3" d="M65,27H79a2,2,0,0,1,2,2V39a0,0,0,0,1,0,0H65a0,0,0,0,1,0,0V27A0,0,0,0,1,65,27Z"/>
  <rect id="Rounded_Rectangle_3-3" data-name="Rounded Rectangle 3" class="cls-3" x="35" y="27" width="18" height="12"/>
  <rect id="Rounded_Rectangle_3-4" data-name="Rounded Rectangle 3" class="cls-3" x="41" y="41" width="8" height="12"/>
  <rect id="Rounded_Rectangle_3-5" data-name="Rounded Rectangle 3" class="cls-3" x="71" y="41" width="10" height="12"/>
  <rect id="Rounded_Rectangle_3-6" data-name="Rounded Rectangle 3" class="cls-3" x="21" y="41" width="18" height="12"/>
  <rect id="Rounded_Rectangle_3-7" data-name="Rounded Rectangle 3" class="cls-3" x="51" y="41" width="18" height="12"/>
  <rect id="Rounded_Rectangle_3-8" data-name="Rounded Rectangle 3" class="cls-3" x="55" y="27" width="8" height="12"/>
  <path id="Rounded_Rectangle_3-9" data-name="Rounded Rectangle 3" class="cls-3" d="M69,55H81a0,0,0,0,1,0,0V65a2,2,0,0,1-2,2H69a0,0,0,0,1,0,0V55A0,0,0,0,1,69,55Z"/>
  <path id="Rounded_Rectangle_3-10" data-name="Rounded Rectangle 3" class="cls-3" d="M21,55H37a0,0,0,0,1,0,0V67a0,0,0,0,1,0,0H23a2,2,0,0,1-2-2V55A0,0,0,0,1,21,55Z"/>
  <rect id="Rounded_Rectangle_3-11" data-name="Rounded Rectangle 3" class="cls-3" x="49" y="55" width="18" height="12"/>
  <rect id="Rounded_Rectangle_3-12" data-name="Rounded Rectangle 3" class="cls-3" x="39" y="55" width="8" height="12"/>
</svg>
