<svg xmlns="http://www.w3.org/2000/svg" class="icon icon-globe-localization" height="18" width="18" viewBox="0 0 18 18"><path d="M9,.925A8.147,8.147,0,0,0,.925,9,8.147,8.147,0,0,0,9,17.075,8.147,8.147,0,0,0,17.075,9,8.147,8.147,0,0,0,9,.925Zm6.86,9.543a6.94,6.94,0,0,1-.333,1.071c-.033.082-.056.17-.091.251a7.014,7.014,0,0,1-.611,1.125c-.017.026-.04.047-.057.072A7.047,7.047,0,0,1,14,13.92c-.046.048-.1.089-.147.136a7.043,7.043,0,0,1-.923.761l-.013.009A6.984,6.984,0,0,1,9.178,16c2.469-1.86,2.167-2.951,3.566-4.506.468-.624-1.4-.78-2.964-1.4C7.752,9.156,8.532,10.716,6.972,9c-.936-1.092-1.248-2.652,1.56-1.4C8.844,7.908,9,6.5,9.624,5.724c.312-.312.312-.624.468-1.092a1.026,1.026,0,0,0-2.028.156c0,.312-1.092-1.872-.312-1.872A5.541,5.541,0,0,1,6.192,2.6c.146-.075.3-.134.451-.2a6.924,6.924,0,0,1,2.277-.426c.027,0,.054,0,.081,0,.156-.156-.936,1.092-.624,1.092S10.56,3.54,10.4,3.7c.535-.937-.194-1.526-1-1.675a6.945,6.945,0,0,1,3.114.936c.17.1.351.187.511.306.06.042.109.095.168.138a6.423,6.423,0,0,1,.954.919c-.312.156-.312.624-.156.936.31.31.314.311.929,0,.1.157.18.326.266.491-.093.036-.13.13-.26.13a2.506,2.506,0,0,0-.78,1.716c0,2.5.624,1.56,1.4,1.872a.566.566,0,0,0,.406.15,7.14,7.14,0,0,1-.073.723C15.876,10.383,15.87,10.426,15.86,10.469ZM6.474,15.533A7.553,7.553,0,0,1,1.98,9a6.965,6.965,0,0,1,.111-1.147c.025-.146.045-.294.079-.438a6.913,6.913,0,0,1,.266-.872c.074-.2.159-.391.25-.58.064-.134.138-.263.211-.392a7.074,7.074,0,0,1,.56-.851c.095-.123.191-.243.294-.359.132-.151.264-.3.41-.441A7.032,7.032,0,0,1,4.788,3.4c.146,1.395-1.09,2.175-.624,3.73.624,2.028,1.4,1.092,2.34,2.5,1.082,1.546,2.769,4.162,1.889,6.335A6.981,6.981,0,0,1,6.474,15.533Z"></path></svg>